<svg xmlns="http://www.w3.org/2000/svg" viewBox="0 0 24 24" fill="none">
  <path fill="#111827" d="M12 1.8a10.2 10.2 0 0 0-3.224 19.878c.51.094.695-.221.695-.49 0-.243-.009-.887-.014-1.742-2.828.615-3.425-1.363-3.425-1.363-.463-1.176-1.13-1.489-1.13-1.489-.924-.632.07-.62.07-.62 1.022.072 1.56 1.05 1.56 1.05.908 1.557 2.383 1.107 2.964.847.092-.658.356-1.108.648-1.362-2.257-.257-4.63-1.128-4.63-5.02 0-1.11.397-2.02 1.048-2.732-.105-.257-.454-1.293.099-2.695 0 0 .854-.274 2.8 1.043A9.73 9.73 0 0 1 12 6.726c.86.004 1.726.116 2.534.34 1.944-1.317 2.797-1.043 2.797-1.043.555 1.402.206 2.438.101 2.695.653.712 1.046 1.621 1.046 2.732 0 3.902-2.377 4.76-4.642 5.012.366.315.692.937.692 1.888 0 1.362-.013 2.46-.013 2.794 0 .271.183.589.701.489A10.2 10.2 0 0 0 12 1.8Z"/>
</svg>
