<svg xmlns="http://www.w3.org/2000/svg" viewBox="0 0 24 24" fill="none">
  <path d="M21.805 12.227c0-.818-.073-1.604-.209-2.364H12v4.472h5.489a4.697 4.697 0 0 1-2.036 3.083v2.56h3.294c1.928-1.776 3.058-4.395 3.058-7.751Z" fill="#4285F4"/>
  <path d="M12 22.2c2.754 0 5.063-.913 6.75-2.469l-3.294-2.56c-.913.612-2.081.973-3.456.973-2.651 0-4.898-1.79-5.7-4.196H2.895v2.644A10.196 10.196 0 0 0 12 22.2Z" fill="#34A853"/>
  <path d="M6.3 13.948A6.13 6.13 0 0 1 5.981 12c0-.677.116-1.336.319-1.948V7.408H2.895A10.194 10.194 0 0 0 1.8 12c0 1.646.395 3.206 1.095 4.592L6.3 13.948Z" fill="#FBBC04"/>
  <path d="M12 5.855c1.497 0 2.842.516 3.901 1.531l2.924-2.924C17.058 2.813 14.754 1.8 12 1.8A10.196 10.196 0 0 0 2.895 7.408L6.3 10.052c.802-2.406 3.049-4.197 5.7-4.197Z" fill="#EA4335"/>
</svg>
